<svg xmlns="http://www.w3.org/2000/svg" width="1000" height="422" viewBox="0 0 1000 422">
<rect width="100%" height="100%" fill="white"/>
<text x="24" y="34" font-family="sans-serif" font-size="22" font-weight="700">OmniToken geomean speedups</text>
<text x="24" y="56" font-family="sans-serif" font-size="12" fill="#4b5563">Higher is better. Ratios compare ns/op across matching encoding/corpus cases.</text>
<text x="24" y="105" font-family="sans-serif" font-size="13">Native count vs tiktoken-go</text>
<rect x="300" y="88" width="505.6" height="24" fill="#2563eb" rx="3"/>
<text x="813.6" y="105" font-family="sans-serif" font-size="13" font-weight="700">15.84x</text>
<text x="940" y="105" text-anchor="end" font-family="sans-serif" font-size="11" fill="#6b7280">n=16</text>
<text x="24" y="149" font-family="sans-serif" font-size="13">Native encode vs tiktoken-go</text>
<rect x="300" y="132" width="417.8" height="24" fill="#dc2626" rx="3"/>
<text x="725.8" y="149" font-family="sans-serif" font-size="13" font-weight="700">13.09x</text>
<text x="940" y="149" text-anchor="end" font-family="sans-serif" font-size="11" fill="#6b7280">n=16</text>
<text x="24" y="193" font-family="sans-serif" font-size="13">Native decode vs tiktoken-go</text>
<rect x="300" y="176" width="73.1" height="24" fill="#16a34a" rx="3"/>
<text x="381.1" y="193" font-family="sans-serif" font-size="13" font-weight="700">2.29x</text>
<text x="940" y="193" text-anchor="end" font-family="sans-serif" font-size="11" fill="#6b7280">n=16</text>
<text x="24" y="237" font-family="sans-serif" font-size="13">Docker count vs Docker tiktoken-go</text>
<rect x="300" y="220" width="640.0" height="24" fill="#9333ea" rx="3"/>
<text x="948.0" y="237" font-family="sans-serif" font-size="13" font-weight="700">20.05x</text>
<text x="940" y="237" text-anchor="end" font-family="sans-serif" font-size="11" fill="#6b7280">n=16</text>
<text x="24" y="281" font-family="sans-serif" font-size="13">Docker encode vs Docker tiktoken-go</text>
<rect x="300" y="264" width="442.7" height="24" fill="#ea580c" rx="3"/>
<text x="750.7" y="281" font-family="sans-serif" font-size="13" font-weight="700">13.87x</text>
<text x="940" y="281" text-anchor="end" font-family="sans-serif" font-size="11" fill="#6b7280">n=16</text>
<text x="24" y="325" font-family="sans-serif" font-size="13">Docker decode vs Docker tiktoken-go</text>
<rect x="300" y="308" width="72.5" height="24" fill="#0891b2" rx="3"/>
<text x="380.5" y="325" font-family="sans-serif" font-size="13" font-weight="700">2.27x</text>
<text x="940" y="325" text-anchor="end" font-family="sans-serif" font-size="11" fill="#6b7280">n=16</text>
<text x="24" y="369" font-family="sans-serif" font-size="13">Docker encode vs OpenAI Rust</text>
<rect x="300" y="352" width="23.8" height="24" fill="#2563eb" rx="3"/>
<text x="331.8" y="369" font-family="sans-serif" font-size="13" font-weight="700">0.75x</text>
<text x="940" y="369" text-anchor="end" font-family="sans-serif" font-size="11" fill="#6b7280">n=16</text>
<text x="24" y="413" font-family="sans-serif" font-size="13">Docker count vs OpenAI Rust count-by-encode</text>
<rect x="300" y="396" width="30.6" height="24" fill="#dc2626" rx="3"/>
<text x="338.6" y="413" font-family="sans-serif" font-size="13" font-weight="700">0.96x</text>
<text x="940" y="413" text-anchor="end" font-family="sans-serif" font-size="11" fill="#6b7280">n=16</text>
</svg>